<svg t="1653701964227" class="icon" viewBox="0 0 1024 1024" version="1.1" xmlns="http://www.w3.org/2000/svg" p-id="7937" width="200" height="200"><path d="M663.49568 80H195.2c-31.81056 0-57.6 25.78944-57.6 57.6V915.20512c0 15.90272 6.44096 30.30528 16.86016 40.72448a57.49248 57.49248 0 0 0 40.73984 16.87552h633.6c31.81056 0 57.6-25.78944 57.6-57.6V302.90432l-222.90432-222.90432z" fill="" p-id="7938"></path><path d="M663.49568 51.2H195.2c-31.81056 0-57.6 25.78944-57.6 57.6V886.40512c0 15.90272 6.44096 30.30528 16.87552 40.72448a57.42592 57.42592 0 0 0 40.72448 16.87552h633.6c31.81056 0 57.6-25.78944 57.6-57.6V274.10432L663.49568 51.2z" fill="#63D0A8" p-id="7939"></path><path d="M764.4672 152.17152l-100.6336 100.62848 222.5664 222.5664V274.10432z" fill="" p-id="7940"></path><path d="M663.49568 51.2h-7.49568v172.8c0 31.81056 25.78944 57.6 57.6 57.6h172.8v-7.49568L663.49568 51.2z" fill="#CAFFEC" p-id="7941"></path><path d="M274.40128 454.4h475.20256c11.92448 0 21.60128-9.6768 21.60128-21.60128s-9.6768-21.60128-21.60128-21.60128H274.40128c-11.92448 0-21.60128 9.6768-21.60128 21.60128s9.6768 21.60128 21.60128 21.60128z m475.19744 86.4H274.40128c-11.92448 0-21.60128 9.6768-21.60128 21.60128s9.6768 21.60128 21.60128 21.60128h475.20256c11.92448 0 21.60128-9.6768 21.60128-21.60128s-9.68192-21.60128-21.6064-21.60128z m0 129.60256H274.40128c-11.92448 0-21.60128 9.6768-21.60128 21.60128s9.6768 21.60128 21.60128 21.60128h475.20256c11.92448 0 21.60128-9.6768 21.60128-21.60128s-9.68192-21.60128-21.6064-21.60128z m-475.19744-345.6h230.4c11.92448 0 21.60128-9.6768 21.60128-21.60128S516.72576 281.6 504.80128 281.6h-230.4c-11.92448 0-21.60128 9.6768-21.60128 21.60128s9.6768 21.60128 21.60128 21.60128z" fill="#FFFFFF" p-id="7942"></path></svg>